<svg viewBox="0 0 154 51" xmlns="http://www.w3.org/2000/svg" xmlns:xlink="http://www.w3.org/1999/xlink" width="154.000000" height="51.000000" fill="none" customFrame="url(#clipPath_0)">
	<defs>
		<clipPath id="clipPath_0">
			<rect width="154.000000" height="51.000000" x="0.000000" y="0.000000" rx="5.000000" fill="rgb(255,255,255)" />
		</clipPath>
		<clipPath id="clipPath_1">
			<rect width="16.000000" height="16.000000" x="106.000000" y="17.000000" fill="rgb(255,255,255)" />
		</clipPath>
	</defs>
	<rect id="Button/Book Me" width="154.000000" height="51.000000" x="0.000000" y="0.000000" rx="5.000000" fill="rgb(255,180,0)" />
	<g id="Group 74">
		<path id="BOOK ME" d="M33.5909 31.3182L35.3466 31.3182L35.3466 26.2443L41.1477 26.2443L41.1477 31.3182L42.9091 31.3182L42.9091 19.6818L41.1477 19.6818L41.1477 24.7386L35.3466 24.7386L35.3466 19.6818L33.5909 19.6818L33.5909 31.3182ZM47.2216 19.6818L45.4659 19.6818L45.4659 31.3182L47.2216 31.3182L47.2216 19.6818ZM49.7784 31.3182L51.5341 31.3182L51.5341 26.9148L53.9205 26.9148C53.9602 26.9148 53.9943 26.9148 54.0341 26.9148L56.3977 31.3182L58.3977 31.3182L55.8182 26.608C57.2443 26.0795 57.9545 24.892 57.9545 23.3295C57.9545 21.1875 56.625 19.6818 53.9261 19.6818L49.7784 19.6818L49.7784 31.3182ZM51.5341 25.4034L51.5341 21.1875L53.7386 21.1875C55.4716 21.1875 56.1875 22.0114 56.1875 23.3295C56.1875 24.642 55.4716 25.4034 53.7614 25.4034L51.5341 25.4034ZM60.0909 31.3182L67.4545 31.3182L67.4545 29.8068L61.8466 29.8068L61.8466 26.2443L67.0057 26.2443L67.0057 24.7386L61.8466 24.7386L61.8466 21.1932L67.3864 21.1932L67.3864 19.6818L60.0909 19.6818L60.0909 31.3182ZM73.9659 19.6818L73.9659 31.3182L75.6364 31.3182L75.6364 22.892L75.7443 22.892L79.1761 31.3011L80.5625 31.3011L83.9943 22.8977L84.1023 22.8977L84.1023 31.3182L85.7727 31.3182L85.7727 19.6818L83.642 19.6818L79.9375 28.7273L79.8011 28.7273L76.0966 19.6818L73.9659 19.6818ZM88.3253 31.3182L95.6889 31.3182L95.6889 29.8068L90.081 29.8068L90.081 26.2443L95.2401 26.2443L95.2401 24.7386L90.081 24.7386L90.081 21.1932L95.6207 21.1932L95.6207 19.6818L88.3253 19.6818L88.3253 31.3182Z" fill="rgb(43,43,43)" fill-rule="nonzero" />
		<g id="Frame" clip-path="url(#clipPath_1)" customFrame="url(#clipPath_1)">
			<rect id="Frame" width="16.000000" height="16.000000" x="106.000000" y="17.000000" fill="rgb(255,255,255)" fill-opacity="0" />
			<path id="Vector" d="M106 17L122 17L122 33L106 33L106 17Z" fill-rule="nonzero" />
			<path id="Vector" d="M116.781 24.3331L113.205 20.7571L114.148 19.8145L119.333 24.9998L114.148 30.1851L113.205 29.2425L116.781 25.6665L108.667 25.6665L108.667 24.3331L116.781 24.3331Z" fill="rgb(43,43,43)" fill-rule="nonzero" />
		</g>
	</g>
</svg>
