<svg viewBox="0 0 221 153.5" xmlns="http://www.w3.org/2000/svg" xmlns:xlink="http://www.w3.org/1999/xlink" width="221.000000" height="153.500000" fill="none" customFrame="#000000">
	<g id="Languages">
		<path id="Languages" d="M1.93821 17.5455L9.84517 17.5455L9.84517 15.8452L3.91335 15.8452L3.91335 4.45454L1.93821 4.45454L1.93821 17.5455ZM14.8022 17.7628C16.4258 17.7628 17.3398 16.9382 17.7042 16.2031L17.7809 16.2031L17.7809 17.5455L19.6474 17.5455L19.6474 11.0256C19.6474 8.16832 17.3974 7.59943 15.8377 7.59943C14.0607 7.59943 12.4244 8.31534 11.7852 10.1051L13.5813 10.5142C13.8626 9.81747 14.5785 9.14631 15.8633 9.14631C17.0969 9.14631 17.7298 9.7919 17.7298 10.9041L17.7298 10.9489C17.7298 11.6456 17.0138 11.6328 15.2496 11.8374C13.3896 12.0547 11.4847 12.5405 11.4847 14.7713C11.4847 16.7017 12.9357 17.7628 14.8022 17.7628ZM15.2177 16.2287C14.1374 16.2287 13.3576 15.7429 13.3576 14.7969C13.3576 13.7741 14.2653 13.4098 15.3711 13.2628C15.9911 13.1797 17.4613 13.0135 17.7362 12.7386L17.7362 14.0043C17.7362 15.1676 16.8093 16.2287 15.2177 16.2287ZM24.1042 11.7159C24.1042 10.1499 25.063 9.25497 26.3926 9.25497C27.6902 9.25497 28.4764 10.1051 28.4764 11.5305L28.4764 17.5455L30.3876 17.5455L30.3876 11.3004C30.3876 8.87145 29.0517 7.59943 27.0446 7.59943C25.568 7.59943 24.6028 8.28338 24.149 9.32528L24.0275 9.32528L24.0275 7.72727L22.193 7.72727L22.193 17.5455L24.1042 17.5455L24.1042 11.7159ZM37.0673 21.4318C39.5666 21.4318 41.497 20.2876 41.497 17.7628L41.497 7.72727L39.6241 7.72727L39.6241 9.31889L39.4835 9.31889C39.1447 8.71165 38.4672 7.59943 36.639 7.59943C34.2676 7.59943 32.5225 9.4723 32.5225 12.598C32.5225 15.7301 34.3059 17.3984 36.6262 17.3984C38.4288 17.3984 39.1255 16.3821 39.4707 15.7557L39.5922 15.7557L39.5922 17.6861C39.5922 19.2266 38.5375 19.8913 37.0865 19.8913C35.4949 19.8913 34.8748 19.0923 34.536 18.5298L32.8933 19.2074C33.411 20.4091 34.7214 21.4318 37.0673 21.4318ZM37.0481 15.8132C35.3414 15.8132 34.4529 14.5028 34.4529 12.5724C34.4529 10.6868 35.3223 9.22301 37.0481 9.22301C38.7164 9.22301 39.6113 10.5845 39.6113 12.5724C39.6113 14.5987 38.6973 15.8132 37.0481 15.8132ZM50.2797 13.4737C50.286 15.142 49.046 15.9347 47.9721 15.9347C46.7896 15.9347 45.9714 15.0781 45.9714 13.7422L45.9714 7.72727L44.0602 7.72727L44.0602 13.9723C44.0602 16.4077 45.3961 17.6733 47.2818 17.6733C48.7583 17.6733 49.7619 16.8935 50.2157 15.8452L50.318 15.8452L50.318 17.5455L52.1973 17.5455L52.1973 7.72727L50.2797 7.72727L50.2797 13.4737ZM57.6225 17.7628C59.2461 17.7628 60.1602 16.9382 60.5245 16.2031L60.6012 16.2031L60.6012 17.5455L62.4677 17.5455L62.4677 11.0256C62.4677 8.16832 60.2177 7.59943 58.658 7.59943C56.881 7.59943 55.2447 8.31534 54.6055 10.1051L56.4016 10.5142C56.6829 9.81747 57.3988 9.14631 58.6836 9.14631C59.9173 9.14631 60.5501 9.7919 60.5501 10.9041L60.5501 10.9489C60.5501 11.6456 59.8342 11.6328 58.07 11.8374C56.2099 12.0547 54.305 12.5405 54.305 14.7713C54.305 16.7017 55.756 17.7628 57.6225 17.7628ZM58.038 16.2287C56.9577 16.2287 56.1779 15.7429 56.1779 14.7969C56.1779 13.7741 57.0856 13.4098 58.1914 13.2628C58.8114 13.1797 60.2816 13.0135 60.5565 12.7386L60.5565 14.0043C60.5565 15.1676 59.6296 16.2287 58.038 16.2287ZM69.1298 21.4318C71.6291 21.4318 73.5595 20.2876 73.5595 17.7628L73.5595 7.72727L71.6866 7.72727L71.6866 9.31889L71.546 9.31889C71.2072 8.71165 70.5297 7.59943 68.7015 7.59943C66.3301 7.59943 64.5851 9.4723 64.5851 12.598C64.5851 15.7301 66.3684 17.3984 68.6887 17.3984C70.4913 17.3984 71.188 16.3821 71.5332 15.7557L71.6547 15.7557L71.6547 17.6861C71.6547 19.2266 70.6 19.8913 69.149 19.8913C67.5574 19.8913 66.9373 19.0923 66.5985 18.5298L64.9558 19.2074C65.4735 20.4091 66.7839 21.4318 69.1298 21.4318ZM69.1106 15.8132C67.4039 15.8132 66.5154 14.5028 66.5154 12.5724C66.5154 10.6868 67.3848 9.22301 69.1106 9.22301C70.7789 9.22301 71.6738 10.5845 71.6738 12.5724C71.6738 14.5987 70.7598 15.8132 69.1106 15.8132ZM80.3542 17.7436C82.4956 17.7436 84.0105 16.6889 84.4451 15.0909L82.6362 14.7649C82.291 15.6918 81.4601 16.1648 80.3734 16.1648C78.737 16.1648 77.6376 15.1037 77.5865 13.2116L84.5666 13.2116L84.5666 12.5341C84.5666 8.9865 82.4444 7.59943 80.22 7.59943C77.4842 7.59943 75.6816 9.68324 75.6816 12.7003C75.6816 15.7493 77.4586 17.7436 80.3542 17.7436ZM77.5929 11.7798C77.6696 10.3864 78.6795 9.17827 80.2328 9.17827C81.7157 9.17827 82.6873 10.2777 82.6937 11.7798L77.5929 11.7798ZM94.0444 10.1243C93.6481 8.59659 92.4528 7.59943 90.3306 7.59943C88.1126 7.59943 86.5401 8.76918 86.5401 10.5078C86.5401 11.9013 87.3839 12.8281 89.2248 13.2372L90.8867 13.6016C91.8327 13.8125 92.2738 14.2344 92.2738 14.848C92.2738 15.6087 91.462 16.2031 90.2092 16.2031C89.065 16.2031 88.3299 15.7109 88.0998 14.7457L86.2525 15.027C86.5721 16.7656 88.0167 17.7436 90.2219 17.7436C92.5934 17.7436 94.2362 16.4844 94.2362 14.7074C94.2362 13.3203 93.354 12.4638 91.5515 12.0483L89.9918 11.6903C88.9116 11.4347 88.445 11.0703 88.4513 10.4055C88.445 9.65128 89.2631 9.11435 90.3498 9.11435C91.5387 9.11435 92.0884 9.77273 92.3121 10.4311L94.0444 10.1243Z" fill="rgb(43,43,43)" fill-rule="nonzero" />
		<g id="Bangla">
			<path id="Bangla" d="M1.82102 54.4545L1.82102 43.5455L5.63494 43.5455C6.39489 43.5455 7.02166 43.6768 7.51527 43.9396C8.00888 44.1989 8.37642 44.5487 8.6179 44.989C8.85938 45.4258 8.98011 45.9105 8.98011 46.4432C8.98011 46.9119 8.89666 47.299 8.72976 47.6044C8.56641 47.9098 8.34979 48.1513 8.0799 48.3288C7.81357 48.5064 7.52415 48.6378 7.21165 48.723L7.21165 48.8295C7.54545 48.8509 7.88104 48.968 8.2184 49.1811C8.55575 49.3942 8.83807 49.6996 9.06534 50.0973C9.29261 50.495 9.40625 50.9815 9.40625 51.5568C9.40625 52.1037 9.28196 52.5955 9.03338 53.0323C8.7848 53.4691 8.3924 53.8153 7.85618 54.071C7.31996 54.3267 6.62216 54.4545 5.76278 54.4545L1.82102 54.4545ZM3.14205 53.2827L5.76278 53.2827C6.62571 53.2827 7.23828 53.1158 7.6005 52.782C7.96626 52.4446 8.14915 52.0362 8.14915 51.5568C8.14915 51.1875 8.05504 50.8466 7.86683 50.5341C7.67862 50.218 7.41051 49.9659 7.0625 49.7777C6.71449 49.5859 6.30256 49.4901 5.8267 49.4901L3.14205 49.4901L3.14205 53.2827ZM3.14205 48.3395L5.59233 48.3395C5.99006 48.3395 6.34872 48.2614 6.66832 48.1051C6.99148 47.9489 7.24716 47.7287 7.43537 47.4446C7.62713 47.1605 7.72301 46.8267 7.72301 46.4432C7.72301 45.9638 7.55611 45.5572 7.2223 45.2234C6.88849 44.886 6.35938 44.7173 5.63494 44.7173L3.14205 44.7173L3.14205 48.3395ZM13.8141 54.6463C13.2956 54.6463 12.8251 54.5487 12.4025 54.3533C11.9799 54.1545 11.6444 53.8686 11.3958 53.4957C11.1472 53.1193 11.0229 52.6648 11.0229 52.1321C11.0229 51.6634 11.1152 51.2834 11.2999 50.9922C11.4846 50.6974 11.7314 50.4666 12.0403 50.2997C12.3493 50.1328 12.6902 50.0085 13.063 49.9268C13.4395 49.8416 13.8176 49.7741 14.1976 49.7244C14.6948 49.6605 15.0978 49.6126 15.4068 49.5806C15.7193 49.5451 15.9466 49.4865 16.0886 49.4048C16.2342 49.3232 16.307 49.1811 16.307 48.9787L16.307 48.9361C16.307 48.4105 16.1632 48.0021 15.8755 47.7109C15.5914 47.4197 15.16 47.2741 14.5811 47.2741C13.981 47.2741 13.5105 47.4055 13.1696 47.6683C12.8287 47.9311 12.589 48.2116 12.4505 48.5099L11.2573 48.0838C11.4703 47.5866 11.7544 47.1996 12.1096 46.9226C12.4682 46.642 12.8588 46.4467 13.2814 46.3366C13.7076 46.223 14.1266 46.1662 14.5385 46.1662C14.8013 46.1662 15.1032 46.1982 15.4441 46.2621C15.7885 46.3224 16.1206 46.4485 16.4402 46.6403C16.7633 46.832 17.0314 47.1214 17.2445 47.5085C17.4576 47.8956 17.5641 48.4141 17.5641 49.0639L17.5641 54.4545L16.307 54.4545L16.307 53.3466L16.2431 53.3466C16.1578 53.5241 16.0158 53.7141 15.8169 53.9165C15.6181 54.119 15.3535 54.2912 15.0233 54.4332C14.693 54.5753 14.29 54.6463 13.8141 54.6463ZM14.0059 53.517C14.503 53.517 14.9221 53.4194 15.263 53.2241C15.6074 53.0288 15.8667 52.7766 16.0407 52.4677C16.2182 52.1587 16.307 51.8338 16.307 51.4929L16.307 50.3423C16.2537 50.4062 16.1365 50.4648 15.9554 50.5181C15.7779 50.5678 15.5719 50.6122 15.3375 50.6513C15.1067 50.6868 14.8812 50.7188 14.661 50.7472C14.4444 50.772 14.2686 50.7933 14.1337 50.8111C13.807 50.8537 13.5016 50.9229 13.2175 51.0188C12.937 51.1112 12.7097 51.2514 12.5357 51.4396C12.3652 51.6243 12.28 51.8764 12.28 52.196C12.28 52.6328 12.4416 52.9631 12.7647 53.1868C13.0914 53.407 13.5051 53.517 14.0059 53.517ZM21.1157 49.5327L21.1157 54.4545L19.8586 54.4545L19.8586 46.2727L21.0731 46.2727L21.0731 47.5511L21.1796 47.5511C21.3714 47.1357 21.6626 46.8018 22.0532 46.5497C22.4438 46.294 22.9481 46.1662 23.566 46.1662C24.1199 46.1662 24.6047 46.2798 25.0202 46.5071C25.4356 46.7308 25.7588 47.0717 25.9896 47.5298C26.2204 47.9844 26.3358 48.5597 26.3358 49.2557L26.3358 54.4545L25.0787 54.4545L25.0787 49.3409C25.0787 48.6982 24.9118 48.1974 24.578 47.8388C24.2442 47.4766 23.7861 47.2955 23.2037 47.2955C22.8025 47.2955 22.4438 47.3825 22.1278 47.5565C21.8153 47.7305 21.5684 47.9844 21.3873 48.3182C21.2062 48.652 21.1157 49.0568 21.1157 49.5327ZM31.9355 57.6932C31.3283 57.6932 30.8063 57.6151 30.3695 57.4588C29.9327 57.3061 29.5687 57.1037 29.2775 56.8516C28.9899 56.603 28.7608 56.3366 28.5904 56.0526L29.5918 55.3494C29.7054 55.4986 29.8493 55.669 30.0233 55.8608C30.1973 56.0561 30.4352 56.2248 30.737 56.3668C31.0424 56.5124 31.4419 56.5852 31.9355 56.5852C32.5961 56.5852 33.1412 56.4254 33.5708 56.1058C34.0005 55.7862 34.2154 55.2855 34.2154 54.6037L34.2154 52.9418L34.1088 52.9418C34.0165 53.0909 33.8851 53.2756 33.7147 53.4957C33.5478 53.7124 33.3063 53.9059 32.9902 54.0763C32.6777 54.2433 32.2551 54.3267 31.7225 54.3267C31.062 54.3267 30.4689 54.1705 29.9434 53.858C29.4213 53.5455 29.0076 53.0909 28.7022 52.4943C28.4004 51.8977 28.2495 51.1733 28.2495 50.321C28.2495 49.483 28.3968 48.7532 28.6916 48.1317C28.9863 47.5067 29.3965 47.0238 29.9221 46.6829C30.4476 46.3384 31.0549 46.1662 31.7438 46.1662C32.2765 46.1662 32.699 46.255 33.0115 46.4325C33.3276 46.6065 33.5691 46.8054 33.736 47.0291C33.9064 47.2493 34.0378 47.4304 34.1301 47.5724L34.258 47.5724L34.258 46.2727L35.4725 46.2727L35.4725 54.6889C35.4725 55.392 35.3127 55.9638 34.9931 56.4041C34.677 56.848 34.2509 57.1729 33.7147 57.3789C33.182 57.5884 32.589 57.6932 31.9355 57.6932ZM31.8929 53.1974C32.3972 53.1974 32.8233 53.082 33.1713 52.8512C33.5194 52.6204 33.7839 52.2884 33.965 51.8551C34.1461 51.4219 34.2367 50.9034 34.2367 50.2997C34.2367 49.7102 34.1479 49.19 33.9703 48.739C33.7928 48.288 33.53 47.9347 33.182 47.679C32.834 47.4233 32.4043 47.2955 31.8929 47.2955C31.3603 47.2955 30.9164 47.4304 30.5613 47.7003C30.2097 47.9702 29.9451 48.3324 29.7676 48.7869C29.5936 49.2415 29.5066 49.7457 29.5066 50.2997C29.5066 50.8679 29.5953 51.3704 29.7729 51.8072C29.954 52.2404 30.2203 52.5813 30.5719 52.8299C30.927 53.0749 31.3674 53.1974 31.8929 53.1974ZM39.0307 43.5455L39.0307 54.4545L37.7736 54.4545L37.7736 43.5455L39.0307 43.5455ZM43.7409 54.6463C43.2224 54.6463 42.7519 54.5487 42.3293 54.3533C41.9067 54.1545 41.5711 53.8686 41.3225 53.4957C41.074 53.1193 40.9497 52.6648 40.9497 52.1321C40.9497 51.6634 41.042 51.2834 41.2267 50.9922C41.4113 50.6974 41.6581 50.4666 41.9671 50.2997C42.276 50.1328 42.6169 50.0085 42.9898 49.9268C43.3662 49.8416 43.7444 49.7741 44.1244 49.7244C44.6215 49.6605 45.0246 49.6126 45.3335 49.5806C45.646 49.5451 45.8733 49.4865 46.0154 49.4048C46.161 49.3232 46.2338 49.1811 46.2338 48.9787L46.2338 48.9361C46.2338 48.4105 46.0899 48.0021 45.8023 47.7109C45.5182 47.4197 45.0867 47.2741 44.5079 47.2741C43.9078 47.2741 43.4372 47.4055 43.0963 47.6683C42.7554 47.9311 42.5157 48.2116 42.3772 48.5099L41.184 48.0838C41.3971 47.5866 41.6812 47.1996 42.0363 46.9226C42.395 46.642 42.7856 46.4467 43.2082 46.3366C43.6343 46.223 44.0534 46.1662 44.4653 46.1662C44.7281 46.1662 45.0299 46.1982 45.3708 46.2621C45.7153 46.3224 46.0473 46.4485 46.3669 46.6403C46.6901 46.832 46.9582 47.1214 47.1713 47.5085C47.3843 47.8956 47.4909 48.4141 47.4909 49.0639L47.4909 54.4545L46.2338 54.4545L46.2338 53.3466L46.1698 53.3466C46.0846 53.5241 45.9426 53.7141 45.7437 53.9165C45.5448 54.119 45.2803 54.2912 44.95 54.4332C44.6198 54.5753 44.2167 54.6463 43.7409 54.6463ZM43.9326 53.517C44.4298 53.517 44.8488 53.4194 45.1897 53.2241C45.5342 53.0288 45.7934 52.7766 45.9674 52.4677C46.145 52.1587 46.2338 51.8338 46.2338 51.4929L46.2338 50.3423C46.1805 50.4062 46.0633 50.4648 45.8822 50.5181C45.7046 50.5678 45.4987 50.6122 45.2643 50.6513C45.0335 50.6868 44.808 50.7188 44.5878 50.7472C44.3712 50.772 44.1954 50.7933 44.0605 50.8111C43.7338 50.8537 43.4284 50.9229 43.1443 51.0188C42.8637 51.1112 42.6365 51.2514 42.4624 51.4396C42.292 51.6243 42.2068 51.8764 42.2068 52.196C42.2068 52.6328 42.3683 52.9631 42.6915 53.1868C43.0182 53.407 43.4319 53.517 43.9326 53.517Z" fill="rgb(118,118,118)" fill-rule="nonzero" />
			<path id="100%" d="M187.464 43.5455L187.464 54.4545L186.143 54.4545L186.143 44.9304L186.08 44.9304L183.416 46.6989L183.416 45.3565L186.143 43.5455L187.464 43.5455ZM194.16 54.6037C193.358 54.6037 192.674 54.3853 192.109 53.9485C191.545 53.5082 191.113 52.8707 190.815 52.0362C190.517 51.1982 190.368 50.1861 190.368 49C190.368 47.821 190.517 46.8143 190.815 45.9798C191.117 45.1417 191.55 44.5025 192.115 44.0621C192.683 43.6183 193.365 43.3963 194.16 43.3963C194.956 43.3963 195.636 43.6183 196.2 44.0621C196.768 44.5025 197.202 45.1417 197.5 45.9798C197.802 46.8143 197.953 47.821 197.953 49C197.953 50.1861 197.804 51.1982 197.505 52.0362C197.207 52.8707 196.776 53.5082 196.211 53.9485C195.646 54.3853 194.963 54.6037 194.16 54.6037ZM194.16 53.4318C194.956 53.4318 195.574 53.0483 196.014 52.2812C196.454 51.5142 196.674 50.4205 196.674 49C196.674 48.0554 196.573 47.2511 196.371 46.587C196.172 45.9229 195.884 45.4169 195.508 45.0689C195.135 44.7209 194.686 44.5469 194.16 44.5469C193.372 44.5469 192.756 44.9357 192.312 45.7134C191.868 46.4876 191.646 47.5831 191.646 49C191.646 49.9446 191.745 50.7472 191.944 51.4077C192.143 52.0682 192.429 52.5707 192.802 52.9151C193.178 53.2596 193.631 53.4318 194.16 53.4318ZM203.535 54.6037C202.733 54.6037 202.049 54.3853 201.484 53.9485C200.92 53.5082 200.488 52.8707 200.19 52.0362C199.892 51.1982 199.743 50.1861 199.743 49C199.743 47.821 199.892 46.8143 200.19 45.9798C200.492 45.1417 200.925 44.5025 201.49 44.0621C202.058 43.6183 202.74 43.3963 203.535 43.3963C204.331 43.3963 205.011 43.6183 205.575 44.0621C206.143 44.5025 206.577 45.1417 206.875 45.9798C207.177 46.8143 207.328 47.821 207.328 49C207.328 50.1861 207.179 51.1982 206.88 52.0362C206.582 52.8707 206.151 53.5082 205.586 53.9485C205.021 54.3853 204.338 54.6037 203.535 54.6037ZM203.535 53.4318C204.331 53.4318 204.949 53.0483 205.389 52.2812C205.829 51.5142 206.049 50.4205 206.049 49C206.049 48.0554 205.948 47.2511 205.746 46.587C205.547 45.9229 205.259 45.4169 204.883 45.0689C204.51 44.7209 204.061 44.5469 203.535 44.5469C202.747 44.5469 202.131 44.9357 201.687 45.7134C201.243 46.4876 201.021 47.5831 201.021 49C201.021 49.9446 201.12 50.7472 201.319 51.4077C201.518 52.0682 201.804 52.5707 202.177 52.9151C202.553 53.2596 203.006 53.4318 203.535 53.4318ZM214.913 52.4091L214.913 51.8338C214.913 51.4361 214.995 51.0721 215.158 50.7418C215.325 50.408 215.566 50.1417 215.882 49.9428C216.202 49.7404 216.589 49.6392 217.044 49.6392C217.505 49.6392 217.892 49.7404 218.205 49.9428C218.517 50.1417 218.754 50.408 218.913 50.7418C219.073 51.0721 219.153 51.4361 219.153 51.8338L219.153 52.4091C219.153 52.8068 219.071 53.1726 218.908 53.5064C218.748 53.8366 218.51 54.103 218.194 54.3054C217.882 54.5043 217.498 54.6037 217.044 54.6037C216.582 54.6037 216.193 54.5043 215.877 54.3054C215.561 54.103 215.321 53.8366 215.158 53.5064C214.995 53.1726 214.913 52.8068 214.913 52.4091ZM216 51.8338L216 52.4091C216 52.7393 216.078 53.0359 216.234 53.2987C216.39 53.5579 216.66 53.6875 217.044 53.6875C217.417 53.6875 217.679 53.5579 217.832 53.2987C217.988 53.0359 218.066 52.7393 218.066 52.4091L218.066 51.8338C218.066 51.5036 217.992 51.2088 217.843 50.9496C217.694 50.6868 217.427 50.5554 217.044 50.5554C216.671 50.5554 216.403 50.6868 216.239 50.9496C216.08 51.2088 216 51.5036 216 51.8338ZM209.48 46.1662L209.48 45.5909C209.48 45.1932 209.561 44.8292 209.725 44.4989C209.892 44.1651 210.133 43.8988 210.449 43.6999C210.769 43.4975 211.156 43.3963 211.61 43.3963C212.072 43.3963 212.459 43.4975 212.772 43.6999C213.084 43.8988 213.32 44.1651 213.48 44.4989C213.64 44.8292 213.72 45.1932 213.72 45.5909L213.72 46.1662C213.72 46.5639 213.638 46.9297 213.475 47.2635C213.315 47.5938 213.077 47.8601 212.761 48.0625C212.449 48.2614 212.065 48.3608 211.61 48.3608C211.149 48.3608 210.76 48.2614 210.444 48.0625C210.128 47.8601 209.888 47.5938 209.725 47.2635C209.561 46.9297 209.48 46.5639 209.48 46.1662ZM210.566 45.5909L210.566 46.1662C210.566 46.4964 210.645 46.793 210.801 47.0558C210.957 47.315 211.227 47.4446 211.61 47.4446C211.983 47.4446 212.246 47.315 212.399 47.0558C212.555 46.793 212.633 46.4964 212.633 46.1662L212.633 45.5909C212.633 45.2607 212.559 44.9659 212.409 44.7067C212.26 44.4439 211.994 44.3125 211.61 44.3125C211.238 44.3125 210.969 44.4439 210.806 44.7067C210.646 44.9659 210.566 45.2607 210.566 45.5909ZM209.885 54.4545L217.385 43.5455L218.599 43.5455L211.099 54.4545L209.885 54.4545Z" fill="rgb(118,118,118)" fill-rule="nonzero" />
		</g>
		<g id="Line">
			<rect id="Rectangle 6" width="220.500000" height="4.500000" x="0.250000" y="65.750000" rx="2.250000" stroke="rgb(255,180,0)" stroke-width="0.5" />
			<rect id="Rectangle 7" width="217.000000" height="2.000000" x="1.500000" y="67.000000" rx="1.000000" fill="rgb(255,180,0)" />
		</g>
		<g id="English">
			<path id="English" d="M1.82102 96.4545L8.49006 96.4545L8.49006 95.2827L3.14205 95.2827L3.14205 91.5753L8.06392 91.5753L8.06392 90.4034L3.14205 90.4034L3.14205 86.7173L8.40483 86.7173L8.40483 85.5455L1.82102 85.5455L1.82102 96.4545ZM11.8725 91.5327C11.8725 90.1051 12.7567 89.2955 13.9606 89.2955C15.1271 89.2955 15.8356 90.0572 15.8356 91.3409L15.8356 96.4545L17.0927 96.4545L17.0927 91.2557C17.0927 89.1676 15.9794 88.1662 14.3228 88.1662C13.087 88.1662 12.32 88.7202 11.9364 89.5511L11.8299 89.5511L11.8299 88.2727L10.6154 88.2727L10.6154 96.4545L11.8725 96.4545L11.8725 91.5327ZM22.6924 99.6932C24.6526 99.6932 26.2293 98.7983 26.2293 96.6889L26.2293 88.2727L25.0148 88.2727L25.0148 89.5724L24.887 89.5724C24.61 89.1463 24.0986 88.1662 22.5006 88.1662C20.4339 88.1662 19.0063 89.8068 19.0063 92.321C19.0063 94.8778 20.4978 96.3267 22.4793 96.3267C24.0773 96.3267 24.5887 95.3892 24.8657 94.9418L24.9722 94.9418L24.9722 96.6037C24.9722 97.9673 24.0134 98.5852 22.6924 98.5852C21.2062 98.5852 20.6842 97.8022 20.3486 97.3494L19.3472 98.0526C19.8586 98.9102 20.8653 99.6932 22.6924 99.6932ZM22.6498 95.1974C21.0731 95.1974 20.2634 94.0043 20.2634 92.2997C20.2634 90.6378 21.0518 89.2955 22.6498 89.2955C24.1839 89.2955 24.9935 90.5312 24.9935 92.2997C24.9935 94.1108 24.1626 95.1974 22.6498 95.1974ZM29.7876 85.5455L28.5305 85.5455L28.5305 96.4545L29.7876 96.4545L29.7876 85.5455ZM32.09 96.4545L33.3471 96.4545L33.3471 88.2727L32.09 88.2727L32.09 96.4545ZM32.7292 86.9091C33.2193 86.9091 33.6241 86.5256 33.6241 86.0568C33.6241 85.5881 33.2193 85.2045 32.7292 85.2045C32.2392 85.2045 31.8343 85.5881 31.8343 86.0568C31.8343 86.5256 32.2392 86.9091 32.7292 86.9091ZM41.445 90.1051C41.0509 88.9439 40.1666 88.1662 38.5473 88.1662C36.8215 88.1662 35.5431 89.1463 35.5431 90.5312C35.5431 91.6605 36.2142 92.4169 37.7164 92.7685L39.08 93.0881C39.9056 93.2798 40.2945 93.674 40.2945 94.2386C40.2945 94.9418 39.5487 95.517 38.3769 95.517C37.3488 95.517 36.7043 95.0749 36.4806 94.196L35.2874 94.4943C35.5803 95.8846 36.7256 96.625 38.3982 96.625C40.2998 96.625 41.5942 95.5863 41.5942 94.1747C41.5942 93.0348 40.8804 92.3157 39.4209 91.9588L38.2064 91.6605C37.2369 91.4208 36.8002 91.0959 36.8002 90.4673C36.8002 89.7642 37.5459 89.2528 38.5473 89.2528C39.6446 89.2528 40.0974 89.8601 40.3158 90.4247L41.445 90.1051ZM44.7436 91.5327C44.7436 90.1051 45.6545 89.2955 46.8956 89.2955C48.0781 89.2955 48.7919 90.0412 48.7919 91.3409L48.7919 96.4545L50.049 96.4545L50.049 91.2557C50.049 89.1516 48.9304 88.1662 47.2578 88.1662C45.9688 88.1662 45.2337 88.7042 44.8501 89.5511L44.7436 89.5511L44.7436 85.5455L43.4865 85.5455L43.4865 96.4545L44.7436 96.4545L44.7436 91.5327Z" fill="rgb(118,118,118)" fill-rule="nonzero" />
			<path id="80%" d="M193.124 96.6037C195.302 96.6037 196.82 95.3306 196.831 93.5568C196.82 92.1772 195.899 91.0053 194.722 90.7869L194.722 90.723C195.744 90.4567 196.415 89.4553 196.426 88.294C196.415 86.6321 195.02 85.3963 193.124 85.3963C191.206 85.3963 189.81 86.6321 189.821 88.294C189.81 89.4553 190.482 90.4567 191.526 90.723L191.526 90.7869C190.327 91.0053 189.406 92.1772 189.416 93.5568C189.406 95.3306 190.924 96.6037 193.124 96.6037ZM193.124 95.4318C191.627 95.4318 190.705 94.6648 190.716 93.4929C190.705 92.2624 191.723 91.3835 193.124 91.3835C194.503 91.3835 195.521 92.2624 195.531 93.4929C195.521 94.6648 194.599 95.4318 193.124 95.4318ZM193.124 90.2543C191.93 90.2543 191.089 89.5085 191.099 88.3793C191.089 87.2713 191.898 86.5469 193.124 86.5469C194.327 86.5469 195.137 87.2713 195.148 88.3793C195.137 89.5085 194.295 90.2543 193.124 90.2543ZM202.431 96.6037C204.838 96.6037 206.223 94.5636 206.223 91C206.223 87.4631 204.817 85.3963 202.431 85.3963C200.044 85.3963 198.638 87.4631 198.638 91C198.638 94.5636 200.023 96.6037 202.431 96.6037ZM202.431 95.4318C200.843 95.4318 199.916 93.8391 199.916 91C199.916 88.1662 200.854 86.5469 202.431 86.5469C204.007 86.5469 204.945 88.1662 204.945 91C204.945 93.8391 204.018 95.4318 202.431 95.4318ZM213.809 94.4091C213.809 95.6023 214.554 96.6037 215.939 96.6037C217.303 96.6037 218.049 95.6023 218.049 94.4091L218.049 93.8338C218.049 92.6406 217.324 91.6392 215.939 91.6392C214.576 91.6392 213.809 92.6406 213.809 93.8338L213.809 94.4091ZM208.375 88.1662C208.375 89.3594 209.121 90.3608 210.506 90.3608C211.87 90.3608 212.615 89.3594 212.615 88.1662L212.615 87.5909C212.615 86.3977 211.891 85.3963 210.506 85.3963C209.142 85.3963 208.375 86.3977 208.375 87.5909L208.375 88.1662ZM208.78 96.4545L209.995 96.4545L217.495 85.5455L216.28 85.5455L208.78 96.4545ZM214.895 93.8338C214.895 93.1733 215.193 92.5554 215.939 92.5554C216.706 92.5554 216.962 93.1733 216.962 93.8338L216.962 94.4091C216.962 95.0696 216.685 95.6875 215.939 95.6875C215.172 95.6875 214.895 95.0696 214.895 94.4091L214.895 93.8338ZM209.462 87.5909C209.462 86.9304 209.76 86.3125 210.506 86.3125C211.273 86.3125 211.529 86.9304 211.529 87.5909L211.529 88.1662C211.529 88.8267 211.252 89.4446 210.506 89.4446C209.739 89.4446 209.462 88.8267 209.462 88.1662L209.462 87.5909Z" fill="rgb(118,118,118)" fill-rule="nonzero" />
		</g>
		<g id="Line">
			<rect id="Rectangle 8" width="220.500000" height="4.500000" x="0.250000" y="107.750000" rx="2.250000" stroke="rgb(255,180,0)" stroke-width="0.5" />
			<rect id="Rectangle 9" width="208.000000" height="2.000000" x="1.500000" y="109.000000" rx="1.000000" fill="rgb(255,180,0)" />
		</g>
		<g id="Spanish">
			<path id="Spanish" d="M7.78693 130.273L9.06534 130.273C9.00675 128.627 7.48864 127.396 5.37926 127.396C3.29119 127.396 1.65057 128.611 1.65057 130.443C1.65057 131.913 2.71591 132.787 4.42045 133.277L5.76278 133.661C6.91335 133.98 7.93608 134.385 7.93608 135.472C7.93608 136.665 6.78551 137.453 5.27273 137.453C3.97301 137.453 2.82244 136.878 2.71591 135.642L1.35227 135.642C1.48011 137.432 2.92898 138.646 5.27273 138.646C7.78693 138.646 9.21449 137.261 9.21449 135.493C9.21449 133.447 7.27557 132.787 6.14631 132.489L5.03835 132.19C4.22869 131.977 2.92898 131.551 2.92898 130.379C2.92898 129.335 3.88778 128.568 5.33665 128.568C6.65767 128.568 7.65909 129.197 7.78693 130.273ZM11.216 141.523L12.4731 141.523L12.4731 137.197L12.5796 137.197C12.8566 137.645 13.3893 138.625 14.966 138.625C17.0115 138.625 18.439 136.984 18.439 134.385C18.439 131.807 17.0115 130.166 14.9447 130.166C13.3467 130.166 12.8566 131.146 12.5796 131.572L12.4305 131.572L12.4305 130.273L11.216 130.273L11.216 141.523ZM12.4518 134.364C12.4518 132.531 13.2615 131.295 14.7955 131.295C16.3936 131.295 17.1819 132.638 17.1819 134.364C17.1819 136.111 16.3722 137.496 14.7955 137.496C13.2828 137.496 12.4518 136.217 12.4518 134.364ZM22.7643 138.646C24.1919 138.646 24.9376 137.879 25.1933 137.347L25.2572 137.347L25.2572 138.455L26.5143 138.455L26.5143 133.064C26.5143 130.464 24.5328 130.166 23.4887 130.166C22.2529 130.166 20.8467 130.592 20.2075 132.084L21.4007 132.51C21.6776 131.913 22.3328 131.274 23.5313 131.274C24.6872 131.274 25.2572 131.887 25.2572 132.936L25.2572 132.979C25.2572 133.586 24.6393 133.533 23.1478 133.724C21.6297 133.922 19.9731 134.257 19.9731 136.132C19.9731 137.73 21.2089 138.646 22.7643 138.646ZM22.9561 137.517C21.9546 137.517 21.2302 137.07 21.2302 136.196C21.2302 135.237 22.1038 134.939 23.0839 134.811C23.6166 134.747 25.0441 134.598 25.2572 134.342L25.2572 135.493C25.2572 136.516 24.4475 137.517 22.9561 137.517ZM30.0659 133.533C30.0659 132.105 30.9501 131.295 32.1539 131.295C33.3205 131.295 34.0289 132.057 34.0289 133.341L34.0289 138.455L35.286 138.455L35.286 133.256C35.286 131.168 34.1728 130.166 32.5162 130.166C31.2804 130.166 30.5133 130.72 30.1298 131.551L30.0233 131.551L30.0233 130.273L28.8088 130.273L28.8088 138.455L30.0659 138.455L30.0659 133.533ZM37.5832 138.455L38.8403 138.455L38.8403 130.273L37.5832 130.273L37.5832 138.455ZM38.2224 128.909C38.7124 128.909 39.1173 128.526 39.1173 128.057C39.1173 127.588 38.7124 127.205 38.2224 127.205C37.7323 127.205 37.3275 127.588 37.3275 128.057C37.3275 128.526 37.7323 128.909 38.2224 128.909ZM46.9382 132.105C46.544 130.944 45.6598 130.166 44.0405 130.166C42.3146 130.166 41.0362 131.146 41.0362 132.531C41.0362 133.661 41.7074 134.417 43.2095 134.768L44.5732 135.088C45.3988 135.28 45.7876 135.674 45.7876 136.239C45.7876 136.942 45.0419 137.517 43.87 137.517C42.842 137.517 42.1974 137.075 41.9737 136.196L40.7805 136.494C41.0735 137.885 42.2188 138.625 43.8913 138.625C45.793 138.625 47.0874 137.586 47.0874 136.175C47.0874 135.035 46.3736 134.316 44.9141 133.959L43.6996 133.661C42.7301 133.421 42.2933 133.096 42.2933 132.467C42.2933 131.764 43.0391 131.253 44.0405 131.253C45.1378 131.253 45.5906 131.86 45.8089 132.425L46.9382 132.105ZM50.2368 133.533C50.2368 132.105 51.1476 131.295 52.3888 131.295C53.5713 131.295 54.2851 132.041 54.2851 133.341L54.2851 138.455L55.5422 138.455L55.5422 133.256C55.5422 131.152 54.4236 130.166 52.751 130.166C51.4619 130.166 50.7268 130.704 50.3433 131.551L50.2368 131.551L50.2368 127.545L48.9797 127.545L48.9797 138.455L50.2368 138.455L50.2368 133.533Z" fill="rgb(118,118,118)" fill-rule="nonzero" />
			<path id="60%" d="M193.251 138.604C195.457 138.63 196.895 136.968 196.895 134.939C196.895 132.83 195.334 131.317 193.464 131.317C192.341 131.317 191.376 131.865 190.78 132.766L190.695 132.766C190.7 130.108 191.733 128.568 193.422 128.568C194.572 128.568 195.265 129.293 195.51 130.273L196.81 130.273C196.543 128.579 195.254 127.396 193.422 127.396C190.966 127.396 189.459 129.57 189.459 133.426C189.459 137.458 191.462 138.582 193.251 138.604ZM193.251 137.432C191.882 137.432 190.881 136.265 190.886 134.96C190.892 133.655 191.941 132.489 193.294 132.489C194.631 132.489 195.616 133.586 195.616 134.939C195.616 136.324 194.588 137.432 193.251 137.432ZM202.548 138.604C204.956 138.604 206.34 136.564 206.34 133C206.34 129.463 204.934 127.396 202.548 127.396C200.161 127.396 198.755 129.463 198.755 133C198.755 136.564 200.14 138.604 202.548 138.604ZM202.548 137.432C200.96 137.432 200.034 135.839 200.034 133C200.034 130.166 200.971 128.547 202.548 128.547C204.125 128.547 205.062 130.166 205.062 133C205.062 135.839 204.135 137.432 202.548 137.432ZM213.926 136.409C213.926 137.602 214.671 138.604 216.056 138.604C217.42 138.604 218.166 137.602 218.166 136.409L218.166 135.834C218.166 134.641 217.441 133.639 216.056 133.639C214.693 133.639 213.926 134.641 213.926 135.834L213.926 136.409ZM208.492 130.166C208.492 131.359 209.238 132.361 210.623 132.361C211.987 132.361 212.733 131.359 212.733 130.166L212.733 129.591C212.733 128.398 212.008 127.396 210.623 127.396C209.259 127.396 208.492 128.398 208.492 129.591L208.492 130.166ZM208.897 138.455L210.112 138.455L217.612 127.545L216.397 127.545L208.897 138.455ZM215.012 135.834C215.012 135.173 215.311 134.555 216.056 134.555C216.823 134.555 217.079 135.173 217.079 135.834L217.079 136.409C217.079 137.07 216.802 137.688 216.056 137.688C215.289 137.688 215.012 137.07 215.012 136.409L215.012 135.834ZM209.579 129.591C209.579 128.93 209.877 128.312 210.623 128.312C211.39 128.312 211.646 128.93 211.646 129.591L211.646 130.166C211.646 130.827 211.369 131.445 210.623 131.445C209.856 131.445 209.579 130.827 209.579 130.166L209.579 129.591Z" fill="rgb(118,118,118)" fill-rule="nonzero" />
		</g>
		<g id="Line">
			<rect id="Rectangle 10" width="220.500000" height="4.500000" x="0.250000" y="148.750000" rx="2.250000" stroke="rgb(255,180,0)" stroke-width="0.5" />
			<rect id="Rectangle 11" width="190.000000" height="2.000000" x="1.500000" y="150.000000" rx="1.000000" fill="rgb(255,180,0)" />
		</g>
	</g>
</svg>
