<svg viewBox="0 0 221 242.5" xmlns="http://www.w3.org/2000/svg" xmlns:xlink="http://www.w3.org/1999/xlink" width="221.000000" height="242.500000" fill="none" customFrame="#000000">
	<g id="Skills">
		<path id="Skills" d="M9.07812 7.89347L10.983 7.89347C10.9254 5.79687 9.07173 4.27557 6.41264 4.27557C3.78551 4.27557 1.77202 5.7777 1.77202 8.03409C1.77202 9.85582 3.07599 10.9233 5.17898 11.4922L6.72585 11.9141C8.12571 12.2848 9.20597 12.745 9.20597 13.9084C9.20597 15.1868 7.98509 16.0305 6.30398 16.0305C4.78267 16.0305 3.51705 15.353 3.40199 13.9276L1.42045 13.9276C1.5483 16.299 3.38281 17.7628 6.31676 17.7628C9.39134 17.7628 11.1619 16.1456 11.1619 13.9276C11.1619 11.5689 9.05895 10.6548 7.39702 10.2457L6.11861 9.91335C5.09588 9.65128 3.73438 9.17187 3.74077 7.91903C3.74077 6.80682 4.7571 5.98224 6.3679 5.98224C7.87003 5.98224 8.9375 6.68537 9.07812 7.89347ZM13.3688 17.5455L15.28 17.5455L15.28 14.0618L16.2324 13.1094L19.5691 17.5455L21.915 17.5455L17.6706 11.9396L21.6465 7.72727L19.3581 7.72727L15.4462 11.8821L15.28 11.8821L15.28 4.45454L13.3688 4.45454L13.3688 17.5455ZM23.3883 17.5455L25.2995 17.5455L25.2995 7.72727L23.3883 7.72727L23.3883 17.5455ZM24.3535 6.21236C25.0119 6.21236 25.5616 5.70099 25.5616 5.07457C25.5616 4.44815 25.0119 3.9304 24.3535 3.9304C23.6887 3.9304 23.1454 4.44815 23.1454 5.07457C23.1454 5.70099 23.6887 6.21236 24.3535 6.21236ZM29.782 4.45454L27.8707 4.45454L27.8707 17.5455L29.782 17.5455L29.782 4.45454ZM34.2644 4.45454L32.3532 4.45454L32.3532 17.5455L34.2644 17.5455L34.2644 4.45454ZM44.1928 10.1243C43.7965 8.59659 42.6012 7.59943 40.479 7.59943C38.261 7.59943 36.6886 8.76918 36.6886 10.5078C36.6886 11.9013 37.5323 12.8281 39.3732 13.2372L41.0352 13.6016C41.9812 13.8125 42.4222 14.2344 42.4222 14.848C42.4222 15.6087 41.6104 16.2031 40.3576 16.2031C39.2134 16.2031 38.4783 15.7109 38.2482 14.7457L36.4009 15.027C36.7205 16.7656 38.1651 17.7436 40.3704 17.7436C42.7418 17.7436 44.3846 16.4844 44.3846 14.7074C44.3846 13.3203 43.5025 12.4638 41.6999 12.0483L40.1403 11.6903C39.06 11.4347 38.5934 11.0703 38.5998 10.4055C38.5934 9.65128 39.4116 9.11435 40.4982 9.11435C41.6871 9.11435 42.2369 9.77273 42.4606 10.4311L44.1928 10.1243Z" fill="rgb(43,43,43)" fill-rule="nonzero" />
		<g id="Html">
			<path id="Html" d="M1.82102 54.4545L3.14205 54.4545L3.14205 49.5753L8.95881 49.5753L8.95881 54.4545L10.2798 54.4545L10.2798 43.5455L8.95881 43.5455L8.95881 48.4034L3.14205 48.4034L3.14205 43.5455L1.82102 43.5455L1.82102 54.4545ZM16.3123 46.2727L14.5652 46.2727L14.5652 44.3125L13.3081 44.3125L13.3081 46.2727L12.0723 46.2727L12.0723 47.3381L13.3081 47.3381L13.3081 52.4517C13.3081 53.8793 14.4586 54.5611 15.524 54.5611C15.9927 54.5611 16.291 54.4759 16.4615 54.4119L16.2058 53.2827C16.0993 53.304 15.9288 53.3466 15.6518 53.3466C15.0978 53.3466 14.5652 53.1761 14.5652 52.1108L14.5652 47.3381L16.3123 47.3381L16.3123 46.2727ZM18.2033 54.4545L19.4604 54.4545L19.4604 49.3409C19.4604 48.1424 20.334 47.2955 21.3141 47.2955C22.2676 47.2955 22.9334 47.9187 22.9334 48.8509L22.9334 54.4545L24.2118 54.4545L24.2118 49.1278C24.2118 48.0732 24.8723 47.2955 26.0229 47.2955C26.9178 47.2955 27.6848 47.7695 27.6848 48.9787L27.6848 54.4545L28.9419 54.4545L28.9419 48.9787C28.9419 47.0558 27.9086 46.1662 26.449 46.1662C25.2772 46.1662 24.4196 46.7042 23.9988 47.5511L23.9135 47.5511C23.5087 46.6776 22.7949 46.1662 21.7189 46.1662C20.6536 46.1662 19.8652 46.6776 19.5243 47.5511L19.4178 47.5511L19.4178 46.2727L18.2033 46.2727L18.2033 54.4545ZM32.4975 43.5455L31.2404 43.5455L31.2404 54.4545L32.4975 54.4545L32.4975 43.5455Z" fill="rgb(118,118,118)" fill-rule="nonzero" />
			<path id="90%" d="M194.102 43.3963C191.886 43.3697 190.459 45.0369 190.459 47.0398C190.459 49.1491 192.014 50.6619 193.889 50.6619C195.018 50.6619 195.977 50.108 196.574 49.2131L196.659 49.2131C196.659 51.8977 195.615 53.4318 193.932 53.4318C192.781 53.4318 192.078 52.7074 191.844 51.706L190.544 51.706C190.8 53.4318 192.099 54.6037 193.932 54.6037C196.382 54.6037 197.895 52.4304 197.895 48.5526C197.895 44.5469 195.892 43.4176 194.102 43.3963ZM194.102 44.5682C195.466 44.5682 196.467 45.7401 196.467 47.0185C196.467 48.3182 195.402 49.4901 194.06 49.4901C192.717 49.4901 191.737 48.4034 191.737 47.0398C191.737 45.6761 192.76 44.5682 194.102 44.5682ZM203.548 54.6037C205.956 54.6037 207.34 52.5636 207.34 49C207.34 45.4631 205.934 43.3963 203.548 43.3963C201.161 43.3963 199.755 45.4631 199.755 49C199.755 52.5636 201.14 54.6037 203.548 54.6037ZM203.548 53.4318C201.96 53.4318 201.034 51.8391 201.034 49C201.034 46.1662 201.971 44.5469 203.548 44.5469C205.125 44.5469 206.062 46.1662 206.062 49C206.062 51.8391 205.135 53.4318 203.548 53.4318ZM214.926 52.4091C214.926 53.6023 215.671 54.6037 217.056 54.6037C218.42 54.6037 219.166 53.6023 219.166 52.4091L219.166 51.8338C219.166 50.6406 218.441 49.6392 217.056 49.6392C215.693 49.6392 214.926 50.6406 214.926 51.8338L214.926 52.4091ZM209.492 46.1662C209.492 47.3594 210.238 48.3608 211.623 48.3608C212.987 48.3608 213.733 47.3594 213.733 46.1662L213.733 45.5909C213.733 44.3977 213.008 43.3963 211.623 43.3963C210.259 43.3963 209.492 44.3977 209.492 45.5909L209.492 46.1662ZM209.897 54.4545L211.112 54.4545L218.612 43.5455L217.397 43.5455L209.897 54.4545ZM216.012 51.8338C216.012 51.1733 216.311 50.5554 217.056 50.5554C217.823 50.5554 218.079 51.1733 218.079 51.8338L218.079 52.4091C218.079 53.0696 217.802 53.6875 217.056 53.6875C216.289 53.6875 216.012 53.0696 216.012 52.4091L216.012 51.8338ZM210.579 45.5909C210.579 44.9304 210.877 44.3125 211.623 44.3125C212.39 44.3125 212.646 44.9304 212.646 45.5909L212.646 46.1662C212.646 46.8267 212.369 47.4446 211.623 47.4446C210.856 47.4446 210.579 46.8267 210.579 46.1662L210.579 45.5909Z" fill="rgb(118,118,118)" fill-rule="nonzero" />
		</g>
		<g id="Line">
			<rect id="Rectangle 12" width="220.500000" height="4.500000" x="0.250000" y="65.750000" rx="2.250000" stroke="rgb(255,180,0)" stroke-width="0.5" />
			<rect id="Rectangle 15" width="209.000000" height="2.000000" x="1.500000" y="67.000000" rx="1.000000" fill="rgb(255,180,0)" />
		</g>
		<g id="CSS">
			<path id="CSS" d="M10.5994 89.9545C10.1946 87.7173 8.40483 86.3963 6.21023 86.3963C3.41903 86.3963 1.39489 88.5483 1.39489 92C1.39489 95.4517 3.41903 97.6037 6.21023 97.6037C8.40483 97.6037 10.1946 96.2827 10.5994 94.0455L9.27841 94.0455C8.95881 95.5582 7.65909 96.3679 6.21023 96.3679C4.22869 96.3679 2.6733 94.8338 2.6733 92C2.6733 89.1662 4.22869 87.6321 6.21023 87.6321C7.65909 87.6321 8.95881 88.4418 9.27841 89.9545L10.5994 89.9545ZM18.7 89.2727L19.9784 89.2727C19.9198 87.6268 18.4017 86.3963 16.2923 86.3963C14.2043 86.3963 12.5637 87.6108 12.5637 89.4432C12.5637 90.9134 13.629 91.7869 15.3335 92.277L16.6759 92.6605C17.8264 92.9801 18.8492 93.3849 18.8492 94.4716C18.8492 95.6648 17.6986 96.4531 16.1858 96.4531C14.8861 96.4531 13.7355 95.8778 13.629 94.642L12.2654 94.642C12.3932 96.4318 13.8421 97.6463 16.1858 97.6463C18.7 97.6463 20.1276 96.2614 20.1276 94.4929C20.1276 92.4474 18.1887 91.7869 17.0594 91.4886L15.9514 91.1903C15.1418 90.9773 13.8421 90.5511 13.8421 89.3793C13.8421 88.3352 14.8009 87.5682 16.2497 87.5682C17.5708 87.5682 18.5722 88.1967 18.7 89.2727ZM28.2654 89.2727L29.5439 89.2727C29.4853 87.6268 27.9672 86.3963 25.8578 86.3963C23.7697 86.3963 22.1291 87.6108 22.1291 89.4432C22.1291 90.9134 23.1944 91.7869 24.899 92.277L26.2413 92.6605C27.3919 92.9801 28.4146 93.3849 28.4146 94.4716C28.4146 95.6648 27.264 96.4531 25.7512 96.4531C24.4515 96.4531 23.301 95.8778 23.1944 94.642L21.8308 94.642C21.9586 96.4318 23.4075 97.6463 25.7512 97.6463C28.2654 97.6463 29.693 96.2614 29.693 94.4929C29.693 92.4474 27.7541 91.7869 26.6248 91.4886L25.5169 91.1903C24.7072 90.9773 23.4075 90.5511 23.4075 89.3793C23.4075 88.3352 24.3663 87.5682 25.8152 87.5682C27.1362 87.5682 28.1376 88.1967 28.2654 89.2727Z" fill="rgb(118,118,118)" fill-rule="nonzero" />
			<path id="85%" d="M194.124 97.6037C196.302 97.6037 197.82 96.3306 197.831 94.5568C197.82 93.1772 196.899 92.0053 195.722 91.7869L195.722 91.723C196.744 91.4567 197.415 90.4553 197.426 89.294C197.415 87.6321 196.02 86.3963 194.124 86.3963C192.206 86.3963 190.81 87.6321 190.821 89.294C190.81 90.4553 191.482 91.4567 192.526 91.723L192.526 91.7869C191.327 92.0053 190.406 93.1772 190.416 94.5568C190.406 96.3306 191.924 97.6037 194.124 97.6037ZM194.124 96.4318C192.627 96.4318 191.705 95.6648 191.716 94.4929C191.705 93.2624 192.723 92.3835 194.124 92.3835C195.503 92.3835 196.521 93.2624 196.531 94.4929C196.521 95.6648 195.599 96.4318 194.124 96.4318ZM194.124 91.2543C192.93 91.2543 192.089 90.5085 192.099 89.3793C192.089 88.2713 192.898 87.5469 194.124 87.5469C195.327 87.5469 196.137 88.2713 196.148 89.3793C196.137 90.5085 195.295 91.2543 194.124 91.2543ZM203.282 97.6037C205.359 97.6037 206.882 96.0696 206.882 93.9815C206.882 91.8668 205.412 90.3168 203.409 90.3168C202.674 90.3168 201.96 90.5778 201.513 90.9347L201.449 90.9347L201.833 87.7173L206.392 87.7173L206.392 86.5455L200.725 86.5455L200.064 91.9148L201.3 92.0639C201.753 91.739 202.525 91.5046 203.196 91.5099C204.587 91.5206 205.604 92.5753 205.604 94.0028C205.604 95.4038 204.624 96.4318 203.282 96.4318C202.163 96.4318 201.273 95.7127 201.172 94.7273L199.894 94.7273C199.974 96.3892 201.407 97.6037 203.282 97.6037ZM214.559 95.4091C214.559 96.6023 215.305 97.6037 216.69 97.6037C218.054 97.6037 218.8 96.6023 218.8 95.4091L218.8 94.8338C218.8 93.6406 218.075 92.6392 216.69 92.6392C215.327 92.6392 214.559 93.6406 214.559 94.8338L214.559 95.4091ZM209.126 89.1662C209.126 90.3594 209.872 91.3608 211.257 91.3608C212.621 91.3608 213.366 90.3594 213.366 89.1662L213.366 88.5909C213.366 87.3977 212.642 86.3963 211.257 86.3963C209.893 86.3963 209.126 87.3977 209.126 88.5909L209.126 89.1662ZM209.531 97.4545L210.746 97.4545L218.246 86.5455L217.031 86.5455L209.531 97.4545ZM215.646 94.8338C215.646 94.1733 215.944 93.5554 216.69 93.5554C217.457 93.5554 217.713 94.1733 217.713 94.8338L217.713 95.4091C217.713 96.0696 217.436 96.6875 216.69 96.6875C215.923 96.6875 215.646 96.0696 215.646 95.4091L215.646 94.8338ZM210.213 88.5909C210.213 87.9304 210.511 87.3125 211.257 87.3125C212.024 87.3125 212.28 87.9304 212.28 88.5909L212.28 89.1662C212.28 89.8267 212.003 90.4446 211.257 90.4446C210.49 90.4446 210.213 89.8267 210.213 89.1662L210.213 88.5909Z" fill="rgb(118,118,118)" fill-rule="nonzero" />
		</g>
		<g id="Line">
			<rect id="Rectangle 13" width="220.500000" height="4.500000" x="0.250000" y="108.750000" rx="2.250000" stroke="rgb(255,180,0)" stroke-width="0.5" />
			<rect id="Rectangle 16" width="207.000000" height="2.000000" x="1.500000" y="110.000000" rx="1.000000" fill="rgb(255,180,0)" />
		</g>
		<g id="Js">
			<path id="Js" d="M5.99716 129.545L5.99716 137.344C5.99716 138.702 5.3473 139.432 4.20739 139.432C3.16868 139.432 2.41761 138.825 2.41761 137.898L1.1179 137.898C1.1179 139.576 2.41761 140.604 4.20739 140.604C6.10369 140.604 7.31818 139.437 7.31818 137.344L7.31818 129.545L5.99716 129.545ZM15.5906 134.105C15.1964 132.944 14.3121 132.166 12.6928 132.166C10.967 132.166 9.68857 133.146 9.68857 134.531C9.68857 135.661 10.3597 136.417 11.8619 136.768L13.2255 137.088C14.0511 137.28 14.44 137.674 14.44 138.239C14.44 138.942 13.6942 139.517 12.5224 139.517C11.4943 139.517 10.8498 139.075 10.6261 138.196L9.43288 138.494C9.72585 139.885 10.8711 140.625 12.5437 140.625C14.4453 140.625 15.7397 139.586 15.7397 138.175C15.7397 137.035 15.0259 136.316 13.5664 135.959L12.3519 135.661C11.3825 135.421 10.9457 135.096 10.9457 134.467C10.9457 133.764 11.6914 133.253 12.6928 133.253C13.7901 133.253 14.2429 133.86 14.4613 134.425L15.5906 134.105Z" fill="rgb(118,118,118)" fill-rule="nonzero" />
			<path id="80%" d="M194.124 140.604C196.302 140.604 197.82 139.331 197.831 137.557C197.82 136.177 196.899 135.005 195.722 134.787L195.722 134.723C196.744 134.457 197.415 133.455 197.426 132.294C197.415 130.632 196.02 129.396 194.124 129.396C192.206 129.396 190.81 130.632 190.821 132.294C190.81 133.455 191.482 134.457 192.526 134.723L192.526 134.787C191.327 135.005 190.406 136.177 190.416 137.557C190.406 139.331 191.924 140.604 194.124 140.604ZM194.124 139.432C192.627 139.432 191.705 138.665 191.716 137.493C191.705 136.262 192.723 135.384 194.124 135.384C195.503 135.384 196.521 136.262 196.531 137.493C196.521 138.665 195.599 139.432 194.124 139.432ZM194.124 134.254C192.93 134.254 192.089 133.509 192.099 132.379C192.089 131.271 192.898 130.547 194.124 130.547C195.327 130.547 196.137 131.271 196.148 132.379C196.137 133.509 195.295 134.254 194.124 134.254ZM203.431 140.604C205.838 140.604 207.223 138.564 207.223 135C207.223 131.463 205.817 129.396 203.431 129.396C201.044 129.396 199.638 131.463 199.638 135C199.638 138.564 201.023 140.604 203.431 140.604ZM203.431 139.432C201.843 139.432 200.916 137.839 200.916 135C200.916 132.166 201.854 130.547 203.431 130.547C205.007 130.547 205.945 132.166 205.945 135C205.945 137.839 205.018 139.432 203.431 139.432ZM214.809 138.409C214.809 139.602 215.554 140.604 216.939 140.604C218.303 140.604 219.049 139.602 219.049 138.409L219.049 137.834C219.049 136.641 218.324 135.639 216.939 135.639C215.576 135.639 214.809 136.641 214.809 137.834L214.809 138.409ZM209.375 132.166C209.375 133.359 210.121 134.361 211.506 134.361C212.87 134.361 213.615 133.359 213.615 132.166L213.615 131.591C213.615 130.398 212.891 129.396 211.506 129.396C210.142 129.396 209.375 130.398 209.375 131.591L209.375 132.166ZM209.78 140.455L210.995 140.455L218.495 129.545L217.28 129.545L209.78 140.455ZM215.895 137.834C215.895 137.173 216.193 136.555 216.939 136.555C217.706 136.555 217.962 137.173 217.962 137.834L217.962 138.409C217.962 139.07 217.685 139.688 216.939 139.688C216.172 139.688 215.895 139.07 215.895 138.409L215.895 137.834ZM210.462 131.591C210.462 130.93 210.76 130.312 211.506 130.312C212.273 130.312 212.529 130.93 212.529 131.591L212.529 132.166C212.529 132.827 212.252 133.445 211.506 133.445C210.739 133.445 210.462 132.827 210.462 132.166L210.462 131.591Z" fill="rgb(118,118,118)" fill-rule="nonzero" />
		</g>
		<g id="Line">
			<rect id="Rectangle 14" width="220.500000" height="4.500000" x="0.250000" y="151.750000" rx="2.250000" stroke="rgb(255,180,0)" stroke-width="0.5" />
			<rect id="Rectangle 17" width="201.000000" height="2.000000" x="1.500000" y="153.000000" rx="1.000000" fill="rgb(255,180,0)" />
		</g>
		<g id="PHP">
			<path id="PHP" d="M1.82102 183.455L3.14205 183.455L3.14205 179.47L5.52841 179.47C8.06925 179.47 9.21449 177.925 9.21449 175.997C9.21449 174.069 8.06925 172.545 5.5071 172.545L1.82102 172.545L1.82102 183.455ZM3.14205 178.298L3.14205 173.717L5.46449 173.717C7.23828 173.717 7.91477 174.687 7.91477 175.997C7.91477 177.308 7.23828 178.298 5.4858 178.298L3.14205 178.298ZM11.3425 183.455L12.6635 183.455L12.6635 178.575L18.4803 178.575L18.4803 183.455L19.8013 183.455L19.8013 172.545L18.4803 172.545L18.4803 177.403L12.6635 177.403L12.6635 172.545L11.3425 172.545L11.3425 183.455ZM22.446 183.455L23.767 183.455L23.767 179.47L26.1534 179.47C28.6942 179.47 29.8395 177.925 29.8395 175.997C29.8395 174.069 28.6942 172.545 26.1321 172.545L22.446 172.545L22.446 183.455ZM23.767 178.298L23.767 173.717L26.0895 173.717C27.8633 173.717 28.5398 174.687 28.5398 175.997C28.5398 177.308 27.8633 178.298 26.1108 178.298L23.767 178.298Z" fill="rgb(118,118,118)" fill-rule="nonzero" />
			<path id="75%" d="M191.97 183.455L193.355 183.455L198.213 173.781L198.213 172.545L191.224 172.545L191.224 173.717L196.849 173.717L196.849 173.803L191.97 183.455ZM203.608 183.604C205.685 183.604 207.209 182.07 207.209 179.982C207.209 177.867 205.738 176.317 203.736 176.317C203 176.317 202.287 176.578 201.839 176.935L201.775 176.935L202.159 173.717L206.718 173.717L206.718 172.545L201.051 172.545L200.39 177.915L201.626 178.064C202.079 177.739 202.851 177.505 203.522 177.51C204.913 177.521 205.93 178.575 205.93 180.003C205.93 181.404 204.95 182.432 203.608 182.432C202.489 182.432 201.6 181.713 201.498 180.727L200.22 180.727C200.3 182.389 201.733 183.604 203.608 183.604ZM214.886 181.409C214.886 182.602 215.631 183.604 217.016 183.604C218.38 183.604 219.126 182.602 219.126 181.409L219.126 180.834C219.126 179.641 218.401 178.639 217.016 178.639C215.653 178.639 214.886 179.641 214.886 180.834L214.886 181.409ZM209.452 175.166C209.452 176.359 210.198 177.361 211.583 177.361C212.947 177.361 213.692 176.359 213.692 175.166L213.692 174.591C213.692 173.398 212.968 172.396 211.583 172.396C210.219 172.396 209.452 173.398 209.452 174.591L209.452 175.166ZM209.857 183.455L211.072 183.455L218.572 172.545L217.357 172.545L209.857 183.455ZM215.972 180.834C215.972 180.173 216.271 179.555 217.016 179.555C217.783 179.555 218.039 180.173 218.039 180.834L218.039 181.409C218.039 182.07 217.762 182.688 217.016 182.688C216.249 182.688 215.972 182.07 215.972 181.409L215.972 180.834ZM210.539 174.591C210.539 173.93 210.837 173.312 211.583 173.312C212.35 173.312 212.606 173.93 212.606 174.591L212.606 175.166C212.606 175.827 212.329 176.445 211.583 176.445C210.816 176.445 210.539 175.827 210.539 175.166L210.539 174.591Z" fill="rgb(118,118,118)" fill-rule="nonzero" />
		</g>
		<g id="Line">
			<rect id="Rectangle 18" width="220.500000" height="4.500000" x="0.250000" y="194.750000" rx="2.250000" stroke="rgb(255,180,0)" stroke-width="0.5" />
			<rect id="Rectangle 19" width="187.000000" height="2.000000" x="1.500000" y="196.000000" rx="1.000000" fill="rgb(255,180,0)" />
		</g>
		<g id="WordPress">
			<path id="WordPress" d="M3.80256 226.455L5.16619 226.455L7.57386 217.761L7.65909 217.761L10.0668 226.455L11.4304 226.455L14.4134 215.545L13.071 215.545L10.7912 224.43L10.6847 224.43L8.36222 215.545L6.87074 215.545L4.5483 224.43L4.44176 224.43L2.16193 215.545L0.819602 215.545L3.80256 226.455ZM19.2127 226.625C21.4286 226.625 22.9201 224.942 22.9201 222.406C22.9201 219.849 21.4286 218.166 19.2127 218.166C16.9968 218.166 15.5053 219.849 15.5053 222.406C15.5053 224.942 16.9968 226.625 19.2127 226.625ZM19.2127 225.496C17.5295 225.496 16.7624 224.047 16.7624 222.406C16.7624 220.766 17.5295 219.295 19.2127 219.295C20.896 219.295 21.663 220.766 21.663 222.406C21.663 224.047 20.896 225.496 19.2127 225.496ZM24.839 226.455L26.0961 226.455L26.0961 221.277C26.0961 220.169 26.9697 219.359 28.1629 219.359C28.4985 219.359 28.8447 219.423 28.93 219.445L28.93 218.166C28.7861 218.156 28.4559 218.145 28.2694 218.145C27.2893 218.145 26.4371 218.699 26.1388 219.509L26.0535 219.509L26.0535 218.273L24.839 218.273L24.839 226.455ZM33.5096 226.625C35.0863 226.625 35.619 225.645 35.896 225.197L36.0451 225.197L36.0451 226.455L37.2596 226.455L37.2596 215.545L36.0025 215.545L36.0025 219.572L35.896 219.572C35.619 219.146 35.1289 218.166 33.5309 218.166C31.4641 218.166 30.0366 219.807 30.0366 222.385C30.0366 224.984 31.4641 226.625 33.5096 226.625ZM33.68 225.496C32.1033 225.496 31.2937 224.111 31.2937 222.364C31.2937 220.638 32.082 219.295 33.68 219.295C35.2141 219.295 36.0238 220.531 36.0238 222.364C36.0238 224.217 35.1928 225.496 33.68 225.496ZM39.907 226.455L41.228 226.455L41.228 222.47L43.6143 222.47C46.1552 222.47 47.3004 220.925 47.3004 218.997C47.3004 217.069 46.1552 215.545 43.593 215.545L39.907 215.545L39.907 226.455ZM41.228 221.298L41.228 216.717L43.5504 216.717C45.3242 216.717 46.0007 217.687 46.0007 218.997C46.0007 220.308 45.3242 221.298 43.5717 221.298L41.228 221.298ZM49.258 226.455L50.5151 226.455L50.5151 221.277C50.5151 220.169 51.3887 219.359 52.5819 219.359C52.9174 219.359 53.2637 219.423 53.3489 219.445L53.3489 218.166C53.2051 218.156 52.8748 218.145 52.6884 218.145C51.7083 218.145 50.856 218.699 50.5577 219.509L50.4725 219.509L50.4725 218.273L49.258 218.273L49.258 226.455ZM58.2694 226.625C59.9314 226.625 61.1459 225.794 61.5294 224.558L60.3149 224.217C59.9953 225.07 59.2549 225.496 58.2694 225.496C56.7939 225.496 55.7765 224.542 55.718 222.79L61.6572 222.79L61.6572 222.257C61.6572 219.21 59.8461 218.166 58.1416 218.166C55.9257 218.166 54.4555 219.913 54.4555 222.428C54.4555 224.942 55.9044 226.625 58.2694 226.625ZM55.718 221.703C55.8032 220.43 56.7034 219.295 58.1416 219.295C59.5052 219.295 60.3788 220.318 60.3788 221.703L55.718 221.703ZM69.365 220.105C68.9708 218.944 68.0866 218.166 66.4672 218.166C64.7414 218.166 63.463 219.146 63.463 220.531C63.463 221.661 64.1341 222.417 65.6363 222.768L66.9999 223.088C67.8256 223.28 68.2144 223.674 68.2144 224.239C68.2144 224.942 67.4687 225.517 66.2968 225.517C65.2687 225.517 64.6242 225.075 64.4005 224.196L63.2073 224.494C63.5003 225.885 64.6455 226.625 66.3181 226.625C68.2197 226.625 69.5141 225.586 69.5141 224.175C69.5141 223.035 68.8003 222.316 67.3408 221.959L66.1263 221.661C65.1569 221.421 64.7201 221.096 64.7201 220.467C64.7201 219.764 65.4658 219.253 66.4672 219.253C67.5645 219.253 68.0173 219.86 68.2357 220.425L69.365 220.105ZM77.2019 220.105C76.8077 218.944 75.9235 218.166 74.3042 218.166C72.5783 218.166 71.2999 219.146 71.2999 220.531C71.2999 221.661 71.9711 222.417 73.4732 222.768L74.8368 223.088C75.6625 223.28 76.0513 223.674 76.0513 224.239C76.0513 224.942 75.3056 225.517 74.1337 225.517C73.1056 225.517 72.4611 225.075 72.2374 224.196L71.0442 224.494C71.3372 225.885 72.4824 226.625 74.155 226.625C76.0566 226.625 77.351 225.586 77.351 224.175C77.351 223.035 76.6373 222.316 75.1777 221.959L73.9632 221.661C72.9938 221.421 72.557 221.096 72.557 220.467C72.557 219.764 73.3027 219.253 74.3042 219.253C75.4015 219.253 75.8542 219.86 76.0726 220.425L77.2019 220.105Z" fill="rgb(118,118,118)" fill-rule="nonzero" />
			<path id="85%" d="M194.124 226.604C196.302 226.604 197.82 225.331 197.831 223.557C197.82 222.177 196.899 221.005 195.722 220.787L195.722 220.723C196.744 220.457 197.415 219.455 197.426 218.294C197.415 216.632 196.02 215.396 194.124 215.396C192.206 215.396 190.81 216.632 190.821 218.294C190.81 219.455 191.482 220.457 192.526 220.723L192.526 220.787C191.327 221.005 190.406 222.177 190.416 223.557C190.406 225.331 191.924 226.604 194.124 226.604ZM194.124 225.432C192.627 225.432 191.705 224.665 191.716 223.493C191.705 222.262 192.723 221.384 194.124 221.384C195.503 221.384 196.521 222.262 196.531 223.493C196.521 224.665 195.599 225.432 194.124 225.432ZM194.124 220.254C192.93 220.254 192.089 219.509 192.099 218.379C192.089 217.271 192.898 216.547 194.124 216.547C195.327 216.547 196.137 217.271 196.148 218.379C196.137 219.509 195.295 220.254 194.124 220.254ZM203.282 226.604C205.359 226.604 206.882 225.07 206.882 222.982C206.882 220.867 205.412 219.317 203.409 219.317C202.674 219.317 201.96 219.578 201.513 219.935L201.449 219.935L201.833 216.717L206.392 216.717L206.392 215.545L200.725 215.545L200.064 220.915L201.3 221.064C201.753 220.739 202.525 220.505 203.196 220.51C204.587 220.521 205.604 221.575 205.604 223.003C205.604 224.404 204.624 225.432 203.282 225.432C202.163 225.432 201.273 224.713 201.172 223.727L199.894 223.727C199.974 225.389 201.407 226.604 203.282 226.604ZM214.559 224.409C214.559 225.602 215.305 226.604 216.69 226.604C218.054 226.604 218.8 225.602 218.8 224.409L218.8 223.834C218.8 222.641 218.075 221.639 216.69 221.639C215.327 221.639 214.559 222.641 214.559 223.834L214.559 224.409ZM209.126 218.166C209.126 219.359 209.872 220.361 211.257 220.361C212.621 220.361 213.366 219.359 213.366 218.166L213.366 217.591C213.366 216.398 212.642 215.396 211.257 215.396C209.893 215.396 209.126 216.398 209.126 217.591L209.126 218.166ZM209.531 226.455L210.746 226.455L218.246 215.545L217.031 215.545L209.531 226.455ZM215.646 223.834C215.646 223.173 215.944 222.555 216.69 222.555C217.457 222.555 217.713 223.173 217.713 223.834L217.713 224.409C217.713 225.07 217.436 225.688 216.69 225.688C215.923 225.688 215.646 225.07 215.646 224.409L215.646 223.834ZM210.213 217.591C210.213 216.93 210.511 216.312 211.257 216.312C212.024 216.312 212.28 216.93 212.28 217.591L212.28 218.166C212.28 218.827 212.003 219.445 211.257 219.445C210.49 219.445 210.213 218.827 210.213 218.166L210.213 217.591Z" fill="rgb(118,118,118)" fill-rule="nonzero" />
		</g>
		<g id="Line">
			<rect id="Rectangle 20" width="220.500000" height="4.500000" x="0.250000" y="237.750000" rx="2.250000" stroke="rgb(255,180,0)" stroke-width="0.5" />
			<rect id="Rectangle 21" width="207.000000" height="2.000000" x="1.500000" y="239.000000" rx="1.000000" fill="rgb(255,180,0)" />
		</g>
	</g>
</svg>
